<svg t="1632799906515" class="icon" viewBox="0 0 1024 1024" version="1.1" xmlns="http://www.w3.org/2000/svg" p-id="7032" width="200" height="200"><path d="M945.230769 433.230769h78.769231v78.769231h-78.769231zM866.461538 512h78.769231v78.769231h-78.769231zM787.692308 590.769231h78.76923v78.769231h-78.76923zM708.923077 669.538462h78.769231v78.76923h-78.769231zM630.153846 748.307692h78.769231v78.769231h-78.769231zM551.384615 827.076923h78.769231v78.769231h-78.769231zM472.615385 905.846154h78.76923v78.769231h-78.76923zM393.846154 827.076923h78.769231v78.769231h-78.769231zM315.076923 748.307692h78.769231v78.769231h-78.769231zM236.307692 669.538462h78.769231v78.76923h-78.769231zM157.538462 590.769231h78.76923v78.769231H157.538462zM78.769231 512h78.769231v78.769231H78.769231zM0 433.230769h78.769231v78.769231H0zM945.230769 354.461538h78.769231v78.769231h-78.769231zM945.230769 275.692308h78.769231v78.76923h-78.769231zM945.230769 196.923077h78.769231v78.769231h-78.769231z" fill="#1E2028" p-id="7033"></path><path d="M866.461538 433.230769h78.769231v78.769231h-78.769231zM866.461538 354.461538h78.769231v78.769231h-78.769231zM866.461538 275.692308h78.769231v78.76923h-78.769231zM866.461538 196.923077h78.769231v78.769231h-78.769231z" fill="#AF1441" p-id="7034"></path><path d="M866.461538 118.153846h78.769231v78.769231h-78.769231z" fill="#1E2028" p-id="7035"></path><path d="M787.692308 512h78.76923v78.769231h-78.76923z" fill="#AF1441" p-id="7036"></path><path d="M787.692308 433.230769h78.76923v78.769231h-78.76923zM787.692308 354.461538h78.76923v78.769231h-78.76923zM787.692308 275.692308h78.76923v78.76923h-78.76923zM787.692308 196.923077h78.76923v78.769231h-78.76923z" fill="#FF1A51" p-id="7037"></path><path d="M787.692308 118.153846h78.76923v78.769231h-78.76923z" fill="#AF1441" p-id="7038"></path><path d="M787.692308 39.384615h78.76923v78.769231h-78.76923z" fill="#1E2028" p-id="7039"></path><path d="M708.923077 590.769231h78.769231v78.769231h-78.769231z" fill="#AF1441" p-id="7040"></path><path d="M708.923077 512h78.769231v78.769231h-78.769231zM708.923077 433.230769h78.769231v78.769231h-78.769231zM708.923077 354.461538h78.769231v78.769231h-78.769231zM708.923077 275.692308h78.769231v78.76923h-78.769231zM708.923077 196.923077h78.769231v78.769231h-78.769231zM708.923077 118.153846h78.769231v78.769231h-78.769231z" fill="#FF1A51" p-id="7041"></path><path d="M708.923077 39.384615h78.769231v78.769231h-78.769231z" fill="#1E2028" p-id="7042"></path><path d="M630.153846 669.538462h78.769231v78.76923h-78.769231z" fill="#AF1441" p-id="7043"></path><path d="M630.153846 590.769231h78.769231v78.769231h-78.769231zM630.153846 512h78.769231v78.769231h-78.769231zM630.153846 433.230769h78.769231v78.769231h-78.769231zM630.153846 354.461538h78.769231v78.769231h-78.769231zM630.153846 275.692308h78.769231v78.76923h-78.769231zM630.153846 196.923077h78.769231v78.769231h-78.769231zM630.153846 118.153846h78.769231v78.769231h-78.769231z" fill="#FF1A51" p-id="7044"></path><path d="M630.153846 39.384615h78.769231v78.769231h-78.769231z" fill="#1E2028" p-id="7045"></path><path d="M551.384615 748.307692h78.769231v78.769231h-78.769231z" fill="#AF1441" p-id="7046"></path><path d="M551.384615 669.538462h78.769231v78.76923h-78.769231zM551.384615 590.769231h78.769231v78.769231h-78.769231zM551.384615 512h78.769231v78.769231h-78.769231zM551.384615 433.230769h78.769231v78.769231h-78.769231zM551.384615 354.461538h78.769231v78.769231h-78.769231zM551.384615 275.692308h78.769231v78.76923h-78.769231zM551.384615 196.923077h78.769231v78.769231h-78.769231z" fill="#FF1A51" p-id="7047"></path><path d="M551.384615 118.153846h78.769231v78.769231h-78.769231z" fill="#1E2028" p-id="7048"></path><path d="M472.615385 827.076923h78.76923v78.769231h-78.76923z" fill="#F4608A" p-id="7049"></path><path d="M472.615385 748.307692h78.76923v78.769231h-78.76923zM472.615385 669.538462h78.76923v78.76923h-78.76923zM472.615385 590.769231h78.76923v78.769231h-78.76923zM472.615385 512h78.76923v78.769231h-78.76923zM472.615385 433.230769h78.76923v78.769231h-78.76923zM472.615385 354.461538h78.76923v78.769231h-78.76923zM472.615385 275.692308h78.76923v78.76923h-78.76923z" fill="#FF1A51" p-id="7050"></path><path d="M472.615385 196.923077h78.76923v78.769231h-78.76923z" fill="#1E2028" p-id="7051"></path><path d="M393.846154 748.307692h78.769231v78.769231h-78.769231z" fill="#F4608A" p-id="7052"></path><path d="M393.846154 669.538462h78.769231v78.76923h-78.769231zM393.846154 590.769231h78.769231v78.769231h-78.769231zM393.846154 512h78.769231v78.769231h-78.769231zM393.846154 433.230769h78.769231v78.769231h-78.769231zM393.846154 354.461538h78.769231v78.769231h-78.769231zM393.846154 275.692308h78.769231v78.76923h-78.769231zM393.846154 196.923077h78.769231v78.769231h-78.769231z" fill="#FF1A51" p-id="7053"></path><path d="M393.846154 118.153846h78.769231v78.769231h-78.769231z" fill="#1E2028" p-id="7054"></path><path d="M315.076923 669.538462h78.769231v78.76923h-78.769231z" fill="#F4608A" p-id="7055"></path><path d="M315.076923 590.769231h78.769231v78.769231h-78.769231zM315.076923 512h78.769231v78.769231h-78.769231zM315.076923 433.230769h78.769231v78.769231h-78.769231zM315.076923 354.461538h78.769231v78.769231h-78.769231zM315.076923 275.692308h78.769231v78.76923h-78.769231zM315.076923 196.923077h78.769231v78.769231h-78.769231zM315.076923 118.153846h78.769231v78.769231h-78.769231z" fill="#FF1A51" p-id="7056"></path><path d="M315.076923 39.384615h78.769231v78.769231h-78.769231z" fill="#1E2028" p-id="7057"></path><path d="M236.307692 590.769231h78.769231v78.769231h-78.769231z" fill="#F4608A" p-id="7058"></path><path d="M236.307692 512h78.769231v78.769231h-78.769231zM236.307692 433.230769h78.769231v78.769231h-78.769231zM236.307692 354.461538h78.769231v78.769231h-78.769231zM236.307692 275.692308h78.769231v78.76923h-78.769231z" fill="#FF1A51" p-id="7059"></path><path d="M236.307692 196.923077h78.769231v78.769231h-78.769231z" fill="#FFFFFF" p-id="7060"></path><path d="M236.307692 118.153846h78.769231v78.769231h-78.769231z" fill="#FF1A51" p-id="7061"></path><path d="M236.307692 39.384615h78.769231v78.769231h-78.769231z" fill="#1E2028" p-id="7062"></path><path d="M157.538462 512h78.76923v78.769231H157.538462z" fill="#F4608A" p-id="7063"></path><path d="M157.538462 433.230769h78.76923v78.769231H157.538462zM157.538462 354.461538h78.76923v78.769231H157.538462z" fill="#FF1A51" p-id="7064"></path><path d="M157.538462 275.692308h78.76923v78.76923H157.538462zM157.538462 196.923077h78.76923v78.769231H157.538462z" fill="#FFFFFF" p-id="7065"></path><path d="M157.538462 118.153846h78.76923v78.769231H157.538462z" fill="#F4608A" p-id="7066"></path><path d="M157.538462 39.384615h78.76923v78.769231H157.538462z" fill="#1E2028" p-id="7067"></path><path d="M78.769231 433.230769h78.769231v78.769231H78.769231zM78.769231 354.461538h78.769231v78.769231H78.769231zM78.769231 275.692308h78.769231v78.76923H78.769231zM78.769231 196.923077h78.769231v78.769231H78.769231z" fill="#F4608A" p-id="7068"></path><path d="M78.769231 118.153846h78.769231v78.769231H78.769231zM0 354.461538h78.769231v78.769231H0zM0 275.692308h78.769231v78.76923H0zM0 196.923077h78.769231v78.769231H0z" fill="#1E2028" p-id="7069"></path></svg>