<svg t="1632799684334" class="icon" viewBox="0 0 1024 1024" version="1.1" xmlns="http://www.w3.org/2000/svg" p-id="4103" width="200" height="200"><path d="M945.230769 551.384615h78.769231v78.769231h-78.769231zM945.230769 472.615385h78.769231v78.76923h-78.769231zM945.230769 393.846154h78.769231v78.769231h-78.769231zM945.230769 315.076923h78.769231v78.769231h-78.769231zM866.461538 708.923077h78.769231v78.769231h-78.769231zM866.461538 630.153846h78.769231v78.769231h-78.769231z" fill="#1E2028" p-id="4104"></path><path d="M866.461538 551.384615h78.769231v78.769231h-78.769231zM866.461538 472.615385h78.769231v78.76923h-78.769231z" fill="#38B269" p-id="4105"></path><path d="M866.461538 393.846154h78.769231v78.769231h-78.769231zM866.461538 315.076923h78.769231v78.769231h-78.769231z" fill="#60EF9A" p-id="4106"></path><path d="M866.461538 236.307692h78.769231v78.769231h-78.769231zM866.461538 157.538462h78.769231v78.76923h-78.769231zM787.692308 787.692308h78.76923v78.76923h-78.76923z" fill="#1E2028" p-id="4107"></path><path d="M787.692308 708.923077h78.76923v78.769231h-78.76923zM787.692308 630.153846h78.76923v78.769231h-78.76923z" fill="#38B269" p-id="4108"></path><path d="M787.692308 551.384615h78.76923v78.769231h-78.76923zM787.692308 472.615385h78.76923v78.76923h-78.76923zM787.692308 393.846154h78.76923v78.769231h-78.76923zM787.692308 315.076923h78.76923v78.769231h-78.76923z" fill="#AF1441" p-id="4109"></path><path d="M787.692308 236.307692h78.76923v78.769231h-78.76923zM787.692308 157.538462h78.76923v78.76923h-78.76923z" fill="#60EF9A" p-id="4110"></path><path d="M787.692308 78.769231h78.76923v78.769231h-78.76923zM708.923077 866.461538h78.769231v78.769231h-78.769231z" fill="#1E2028" p-id="4111"></path><path d="M708.923077 787.692308h78.769231v78.76923h-78.769231z" fill="#38B269" p-id="4112"></path><path d="M708.923077 708.923077h78.769231v78.769231h-78.769231zM708.923077 630.153846h78.769231v78.769231h-78.769231z" fill="#AF1441" p-id="4113"></path><path d="M708.923077 551.384615h78.769231v78.769231h-78.769231zM708.923077 472.615385h78.769231v78.76923h-78.769231zM708.923077 393.846154h78.769231v78.769231h-78.769231zM708.923077 315.076923h78.769231v78.769231h-78.769231zM708.923077 236.307692h78.769231v78.769231h-78.769231zM708.923077 157.538462h78.769231v78.76923h-78.769231z" fill="#FF1A51" p-id="4114"></path><path d="M708.923077 78.769231h78.769231v78.769231h-78.769231z" fill="#AAF2C7" p-id="4115"></path><path d="M708.923077 0h78.769231v78.769231h-78.769231zM630.153846 866.461538h78.769231v78.769231h-78.769231z" fill="#1E2028" p-id="4116"></path><path d="M630.153846 787.692308h78.769231v78.76923h-78.769231z" fill="#38B269" p-id="4117"></path><path d="M630.153846 708.923077h78.769231v78.769231h-78.769231z" fill="#AF1441" p-id="4118"></path><path d="M630.153846 630.153846h78.769231v78.769231h-78.769231zM630.153846 551.384615h78.769231v78.769231h-78.769231z" fill="#FF1A51" p-id="4119"></path><path d="M630.153846 472.615385h78.769231v78.76923h-78.769231z" fill="#AF1441" p-id="4120"></path><path d="M630.153846 393.846154h78.769231v78.769231h-78.769231z" fill="#FF1A51" p-id="4121"></path><path d="M630.153846 315.076923h78.769231v78.769231h-78.769231z" fill="#AF1441" p-id="4122"></path><path d="M630.153846 236.307692h78.769231v78.769231h-78.769231z" fill="#FF1A51" p-id="4123"></path><path d="M630.153846 157.538462h78.769231v78.76923h-78.769231z" fill="#F4608A" p-id="4124"></path><path d="M630.153846 78.769231h78.769231v78.769231h-78.769231zM551.384615 945.230769h78.769231v78.769231h-78.769231z" fill="#1E2028" p-id="4125"></path><path d="M551.384615 866.461538h78.769231v78.769231h-78.769231z" fill="#38B269" p-id="4126"></path><path d="M551.384615 787.692308h78.769231v78.76923h-78.769231z" fill="#AF1441" p-id="4127"></path><path d="M551.384615 708.923077h78.769231v78.769231h-78.769231zM551.384615 630.153846h78.769231v78.769231h-78.769231zM551.384615 551.384615h78.769231v78.769231h-78.769231zM551.384615 472.615385h78.769231v78.76923h-78.769231zM551.384615 393.846154h78.769231v78.769231h-78.769231zM551.384615 315.076923h78.769231v78.769231h-78.769231z" fill="#FF1A51" p-id="4128"></path><path d="M551.384615 236.307692h78.769231v78.769231h-78.769231z" fill="#F4608A" p-id="4129"></path><path d="M551.384615 157.538462h78.769231v78.76923h-78.769231zM472.615385 945.230769h78.76923v78.769231h-78.76923z" fill="#1E2028" p-id="4130"></path><path d="M472.615385 866.461538h78.76923v78.769231h-78.76923z" fill="#38B269" p-id="4131"></path><path d="M472.615385 787.692308h78.76923v78.76923h-78.76923z" fill="#AF1441" p-id="4132"></path><path d="M472.615385 708.923077h78.76923v78.769231h-78.76923z" fill="#FF1A51" p-id="4133"></path><path d="M472.615385 630.153846h78.76923v78.769231h-78.76923z" fill="#AF1441" p-id="4134"></path><path d="M472.615385 551.384615h78.76923v78.769231h-78.76923z" fill="#FF1A51" p-id="4135"></path><path d="M472.615385 472.615385h78.76923v78.76923h-78.76923z" fill="#AF1441" p-id="4136"></path><path d="M472.615385 393.846154h78.76923v78.769231h-78.76923z" fill="#FF1A51" p-id="4137"></path><path d="M472.615385 315.076923h78.76923v78.769231h-78.76923z" fill="#F4608A" p-id="4138"></path><path d="M472.615385 236.307692h78.76923v78.769231h-78.76923zM393.846154 945.230769h78.769231v78.769231h-78.769231z" fill="#1E2028" p-id="4139"></path><path d="M393.846154 866.461538h78.769231v78.769231h-78.769231z" fill="#60EF9A" p-id="4140"></path><path d="M393.846154 787.692308h78.769231v78.76923h-78.769231z" fill="#AF1441" p-id="4141"></path><path d="M393.846154 708.923077h78.769231v78.769231h-78.769231zM393.846154 630.153846h78.769231v78.769231h-78.769231zM393.846154 551.384615h78.769231v78.769231h-78.769231zM393.846154 472.615385h78.769231v78.76923h-78.769231z" fill="#FF1A51" p-id="4142"></path><path d="M393.846154 393.846154h78.769231v78.769231h-78.769231z" fill="#F4608A" p-id="4143"></path><path d="M393.846154 315.076923h78.769231v78.769231h-78.769231zM315.076923 945.230769h78.769231v78.769231h-78.769231z" fill="#1E2028" p-id="4144"></path><path d="M315.076923 866.461538h78.769231v78.769231h-78.769231z" fill="#60EF9A" p-id="4145"></path><path d="M315.076923 787.692308h78.769231v78.76923h-78.769231z" fill="#AF1441" p-id="4146"></path><path d="M315.076923 708.923077h78.769231v78.769231h-78.769231z" fill="#FF1A51" p-id="4147"></path><path d="M315.076923 630.153846h78.769231v78.769231h-78.769231z" fill="#AF1441" p-id="4148"></path><path d="M315.076923 551.384615h78.769231v78.769231h-78.769231z" fill="#FF1A51" p-id="4149"></path><path d="M315.076923 472.615385h78.769231v78.76923h-78.769231z" fill="#F4608A" p-id="4150"></path><path d="M315.076923 393.846154h78.769231v78.769231h-78.769231zM236.307692 866.461538h78.769231v78.769231h-78.769231z" fill="#1E2028" p-id="4151"></path><path d="M236.307692 787.692308h78.769231v78.76923h-78.769231z" fill="#60EF9A" p-id="4152"></path><path d="M236.307692 708.923077h78.769231v78.769231h-78.769231zM236.307692 630.153846h78.769231v78.769231h-78.769231z" fill="#FF1A51" p-id="4153"></path><path d="M236.307692 551.384615h78.769231v78.769231h-78.769231z" fill="#F4608A" p-id="4154"></path><path d="M236.307692 472.615385h78.769231v78.76923h-78.769231zM157.538462 866.461538h78.76923v78.769231H157.538462z" fill="#1E2028" p-id="4155"></path><path d="M157.538462 787.692308h78.76923v78.76923H157.538462z" fill="#60EF9A" p-id="4156"></path><path d="M157.538462 708.923077h78.76923v78.769231H157.538462z" fill="#FF1A51" p-id="4157"></path><path d="M157.538462 630.153846h78.76923v78.769231H157.538462z" fill="#F4608A" p-id="4158"></path><path d="M157.538462 551.384615h78.76923v78.769231H157.538462zM78.769231 787.692308h78.769231v78.76923H78.769231z" fill="#1E2028" p-id="4159"></path><path d="M78.769231 708.923077h78.769231v78.769231H78.769231z" fill="#AAF2C7" p-id="4160"></path><path d="M78.769231 630.153846h78.769231v78.769231H78.769231zM0 708.923077h78.769231v78.769231H0z" fill="#1E2028" p-id="4161"></path></svg>